<svg id="Layer_1" data-name="Layer 1" xmlns="http://www.w3.org/2000/svg" viewBox="0 0 1000 1000"><defs><style>.cls-1{fill:orange;}</style></defs><title>expire</title><path class="cls-1" d="M499.93,0C223.86,0,0,223.86,0,499.93S223.86,1000,499.93,1000,1000,776.14,1000,499.93,776.14,0,499.93,0Zm0,848C307.86,848,152,692.14,152,499.93S307.86,152,499.93,152s348,155.83,348,347.9S692.14,848,499.93,848Z"/><path class="cls-1" d="M578.57,265V563.51a13.75,13.75,0,0,1-13.75,13.75H340.46a13.75,13.75,0,0,1-13.75-13.75V509.24a13.75,13.75,0,0,1,13.75-13.75H483a13.75,13.75,0,0,0,13.75-13.75V265a13.75,13.75,0,0,1,13.75-13.75h54.26A13.75,13.75,0,0,1,578.57,265Z"/></svg>